<?xml version="1.0" encoding="utf-8"?>
<!-- Generator: Adobe Illustrator 27.7.0, SVG Export Plug-In . SVG Version: 6.00 Build 0)  -->
<svg version="1.1" id="Layer_1" xmlns="http://www.w3.org/2000/svg" xmlns:xlink="http://www.w3.org/1999/xlink" x="0px" y="0px"
	 viewBox="0 0 1 1" style="enable-background:new 0 0 1 1;" xml:space="preserve">
<style type="text/css">
	.st0{fill:none;stroke:#765D29;stroke-width:2;}
	.st1{fill:none;stroke:#743A23;stroke-width:2;}
	.st2{fill:none;stroke:#795024;stroke-width:2;}
	.st3{fill:none;stroke:#E6823F;stroke-width:2;}
	.st4{fill:#E5B24A;}
	.st5{fill:#070808;}
	.st6{fill:#E06C3E;}
	.st7{fill:#EB973F;}
</style>
<g>
	<path vector-effect="non-scaling-stroke" class="st0" d="M-9.3-125.7c-2.4-3.2-4.4-6.7-6-10.5c-8.9-21-14.6-42.1-19.3-64.3
		c-2-9.2-4.8-18-6.6-27.3c-1.3-6.7-2.8-13.4-5.4-19.8c-2.4-5.9-3.7-11.7-6.6-18.6c-2-4.7-3.6-10.9-6.3-16.3
		c-9.3-18.9-21-37.2-36.4-51.4c-9-8.2-18.9-15.6-28.3-23.3c-2.8-2.3-6.6-2.4-10-3.4c-3.5-1-5.2,4.2-5.8,6.7
		c-1.1,4.9-2.6,8.9-2.8,13.6c-0.1,1-0.7,2-0.8,2.7c-0.8,11.3-0.9,25.3-0.2,42c0.1,2.8,1,5.1,1.2,7c1.7,19.5,6.6,39.6,14.7,60.2
		c3.2,8.3,6.8,15.2,10.5,20.6c1.7,2.5,2.6,5,4.2,7.6c3.2,5,5.2,10,8.6,15.2c7,10.9,13.5,20.4,19.7,28.6c2,2.6,3.2,5.2,4.7,8.1
		c2.1,3.9,5.5,8.2,7.3,12.5c1.9,4.6,6.1,14.7,6.5,21.6c0.8,12.8-0.1,21.9-3.7,33.9c-2.2,7.3-6.1,14-9.7,20.8
		c-9.3,17.7-27.5,31.4-38.3,49.5c-4.5,7.4-8.3,15.1-11.6,23.2c-0.7,1.8-1.1,3.6-1.1,5.5c0,4.1,1,37.1,10,33.8
		c9.4-3.5,19.9-6.6,30.3-10.6c4.1-1.6,11.6-3.9,22.6-7c5-1.4,10.4-4,15.9-5.5c20.1-5.7,40-12.2,60.2-17.7c2.3-0.6,4.9-1.9,7-2.6
		C37.3,2.4,52.5-2.1,60.6-4.2c17.7-4.7,30.5-8.3,38.7-10.7c2.2-0.7,5.8-1.3,8.8-2.6c4-1.8,8.3-2.1,12.4-4.1
		c3.4-1.6,6.9-1.7,10.3-3.9c0.2-0.2,0.4-0.5,0.3-0.8c-3.9-11.2-6-17.6-12.4-23.7c-5-4.8-7.2-10.8-12-15.5c-7.5-7.4-19.9-12-30.2-15
		c-14.4-4.2-28.7-8.8-42.9-13.7c-0.3-0.1-0.6-0.3-0.8-0.5s-0.4-0.4-0.6-0.6c-0.3-0.3-0.6-0.5-1-0.6c-6.4-2.4-13.2-4.6-18.6-8.8
		C6.4-109.5,0.8-114.9-4.2-121C-5.9-122.8-8-124-9.3-125.7"/>
	<path vector-effect="non-scaling-stroke" class="st0" d="M-115.1,78.4c4,4,3.9,10.5,10.8,11c1.7,0.1,4.6-0.5,8.7-2
		c16-5.7,32.3-10.2,48.6-14.8c0.8-0.2,1.7-0.7,2.9-1.5c2.1-1.4,5.4-1.8,6.8-2.4c11.7-4.3,23.5-8.2,35.5-11.7
		c5.2-1.5,11.3-4.1,17-5.6c5.5-1.5,9.5-2.6,11.9-3.5C39,43.8,51,40,63.1,36.5c12-3.4,23.6-8.6,35.2-12.2c14.9-4.6,24.8-7.5,29.7-8.6
		c4.8-1.1,8.8-2.3,11.8-3.5c0.3-0.1,0.5-0.4,0.4-0.7c-0.6-6.7-2.4-13.1-4-19.6c-0.1-0.3-0.4-0.4-0.6-0.4l0,0
		c-10.4,3.4-20.6,6.6-30.7,9.4c-4.9,1.4-9.1,3.5-14.2,4.9c-7.6,2-14.9,5.2-22,7.1C55,16.4,41.6,20.8,27.9,24.3
		c-2.7,0.7-5.5,2.4-8.7,2.8c-1.5,0.2-2.8,0.6-3.9,1.1c-3.4,1.7-7.1,3.1-10.8,3.9c-4.3,1-8.1,2.9-12.3,4c-26.7,6.4-52.9,16-79,24.7
		c-0.5,0.2-3.9,1.5-10.3,4c-6.2,2.4-13.8,3.2-19.5,7c-0.2,0.2-0.4,0.4-0.4,0.7C-117.3,74.9-116.6,76.9-115.1,78.4"/>
	<path vector-effect="non-scaling-stroke" class="st1" d="M143.3,187.6c0.6,0.6,1.7,0.6,2.3-0.1c0.1-0.1,0.1-0.1,0.2-0.2
		c1.8-2.8,3.2-5.6,4.2-8.4c2.7-7.9,5.1-15.8,7.1-23.9c2.3-9.2,3.9-15.7,4.7-19.4c4.3-19.3,5.1-38.2,2.9-57.9
		c-2-17.9-5.3-31.6-12.6-48.9c-0.1-0.3-0.3-0.5-0.7-0.5c-1.4-0.1-2.6-0.1-3.5,0.2c-18.7,5.9-37.5,11.6-56.3,17
		c-2.9,0.9-5.7,1.7-8.2,2.6c-0.9,0.3-1.4,1.3-1,2.2c0,0.1,0.1,0.2,0.2,0.4c2.7,4.2,5.8,7.5,8.3,12.1c1.8,3.2,4.2,5.2,5.2,9.2
		s4.3,7.3,5.6,10.1c4.4,9.6,9.1,18.9,14.2,28.1c2.8,5.1,4.9,11.1,7.7,16.5c3.2,5.9,5.1,9.7,5.8,11.4c5.7,13.7,9.3,27.9,11,42.8
		C140.5,183.7,141.6,185.9,143.3,187.6"/>
	<path vector-effect="non-scaling-stroke" class="st1" d="M81.8,50.8c-0.1-0.5-0.7-0.8-1.1-0.6l0,0L70,53.5
		c-0.5,0.1-0.8,0.7-0.6,1.1v0.1c0.1,0.5,0.7,0.8,1.1,0.6l0,0L81.2,52C81.7,51.9,82,51.4,81.8,50.8L81.8,50.8"/>
	<path vector-effect="non-scaling-stroke" class="st1" d="M11.5,71.8l-38.1,11.9"/>
	<path vector-effect="non-scaling-stroke" class="st2" d="M-26.6,83.7c-14,5.4-28.2,10.2-42.5,14.5c-7.3,2.2-19.3,4.7-28.6,8.2
		c-0.8,0.3-1.1,1.1-0.8,1.9c0,0,0,0,0,0.1c4.2,9.8,7.8,21.5,15.7,29c1.7,1.6,1.5,4.1,2.8,6.1c1.9,2.9,3.1,5.1,3.4,6.3
		c1,3.7,3.4,7.1,4.7,9.9c1.9,4.3,4,8.5,6.2,12.6c1.7,3.1,3.1,6.9,5,10.2c3.2,5.4,5.1,9.6,7.6,14.5c1.7,3.3,3.2,7.8,5.6,11.5
		c1.3,2,1.5,4.5,2.7,6.8c2.8,5.2,5.5,10.4,8.1,15.8c1.2,2.5,1.6,4.9,3,7.2c5.7,9.2,10.8,18.7,15.5,28.4c1.9,4,4,10.1,6.7,14.8
		c6.1,11,11.2,22.3,17.6,33.1c2.2,3.8,3.8,10.1,7.1,14.9c2.6,3.8,4.4,9.7,5.7,14c0.1,0.3,0.3,0.6,0.5,0.8c2.6,2.6,3.8,6.3,5.6,9.5
		c0.2,0.3,0.4,0.4,0.7,0.2c5-3.7,9.2-6.8,13.4-11.9c2.9-3.4,5.9-6.7,9.2-9.8"/>
	<path vector-effect="non-scaling-stroke" class="st1" d="M48.4,332.3c2.5-3.2,5.9-5.9,8.3-8.6c6.2-6.8,13.5-12.2,18.8-19.7"/>
	<path vector-effect="non-scaling-stroke" class="st2" d="M75.5,304c5-7,12-13.1,18.2-19.1c2.4-2.3,4.2-5,6.4-7.6
		c5-6,8.4-12.7,10.8-20.2c0.1-0.4,0.4-0.7,0.7-0.9l3-1.8c0.2-0.1,0.4-0.3,0.6-0.6c5.5-9.8,9-20.7,11.7-31.5
		c3.9-15.6,2.3-30.6-2.4-45.8c-5.6-18-13.5-35.1-20.7-52.3c-0.3-0.6-1-2.1-2.3-4.4c-2.5-4.7-4.1-9.6-6.9-14.5
		c-2.6-4.6-4.4-7.9-5.4-9.7c-7-13.9-14.9-27.2-21.9-41.1c-0.1-0.3-0.5-0.4-0.8-0.4c-6.8,1.5-13.4,3.5-19.8,6
		c-12,4.8-23.3,8-35.1,11.5"/>
	<path vector-effect="non-scaling-stroke" class="st3" d="M75.5,304c-1.2,0-2-0.5-2.4-1.6c-0.1-0.3-0.1-0.6,0.1-0.9
		c7.9-11.8,5.4-27,6.6-40.6c1-10.5,2.8-22.1,2.9-31.4c0.2-18.6-2.7-36.5-12.4-52.7c-2.7-4.5-5.4-8.8-7.8-13.5
		c-7.2-13.9-15.2-27.3-22.2-41.2c-8.4-16.5-17.4-32.7-27-48.6c-0.2-0.3-0.4-0.5-0.8-0.6c-0.9-0.2-1.2-0.7-1-1.3"/>
	<path vector-effect="non-scaling-stroke" class="st3" d="M48.4,332.3c-2.5-5-6.5-3.5-10.2-6.4c-0.3-0.2-0.4-0.5-0.5-0.8
		c-1.7-7.3-3.6-14.1-4.4-21.6c-0.8-7.1-1.7-14.2-2.8-21.2c-2.8-18.1-0.9-31.9,1-52.6c1-10.1-2-19.5-5.3-30.7
		c-7.3-24.6-17-48.2-29.2-70.8c-3.6-6.6-10.3-20.2-20.2-41c-0.5-1-1.6-2.2-3.4-3.6"/>
	<path vector-effect="non-scaling-stroke" class="st0" d="M-87.7-295.8c-4.5-2.8-10.2-6.3-15.6-5.9c-6,0.5-11.3,2.7-15.9,6.7
		c-7.2,6.2-11.3,18.7-4.7,26.9c6.3,7.9,14.2,14.4,23.7,19.5c5.9,3.2,12.8,5.3,19.5,7.3c0.3,0.1,0.5-0.1,0.6-0.3l0,0
		c1.8-6.5-0.5-17.5-2.4-23.9c-3-9.8-4.5-16.3-6.7-24.6c-0.6-2.3,1.3-2.5,2-4.2C-86.9-294.8-87.1-295.4-87.7-295.8"/>
</g>
<path class="st4" d="M-9.3-125.7c1.3,1.7,3.4,2.9,4.8,4.5c5,6.1,10.6,11.5,16.8,16.3c5.4,4.2,12.2,6.4,18.6,8.8
	c0.4,0.2,0.8,0.4,1,0.6s0.4,0.4,0.6,0.6c0.2,0.2,0.5,0.4,0.8,0.5c14.2,4.9,28.5,9.4,42.9,13.7c10.3,3,22.7,7.7,30.2,15
	c4.8,4.7,7,10.7,12,15.5c6.5,6.2,8.5,12.6,12.4,23.7c0.1,0.3,0,0.6-0.3,0.8c-3.4,2.2-6.9,2.2-10.3,3.9c-4.1,2-8.3,2.3-12.4,4.1
	c-3,1.3-6.6,2-8.8,2.6c-8.1,2.4-21,6-38.7,10.7C52.2-2.2,37,2.2,14.9,8.9c-2.1,0.6-4.7,1.9-7,2.6c-20.2,5.5-40.1,12-60.2,17.7
	c-5.4,1.5-10.8,4.1-15.9,5.5c-11,3.1-18.5,5.5-22.6,7c-10.4,4-20.9,7.1-30.3,10.6c-9,3.3-10-29.8-10-33.8c0-1.9,0.3-3.7,1.1-5.5
	c3.3-8,7.2-15.8,11.6-23.2c10.8-18,29-31.8,38.3-49.5c3.6-6.8,7.5-13.5,9.7-20.8c3.6-12,4.4-21.1,3.7-33.9c-0.4-6.9-4.6-17-6.5-21.6
	c-1.8-4.3-5.2-8.6-7.3-12.5c-1.5-2.8-2.7-5.5-4.7-8.1c-6.1-8.1-12.7-17.7-19.7-28.6c-3.3-5.2-5.4-10.2-8.6-15.2
	c-1.6-2.5-2.5-5.1-4.2-7.6c-3.8-5.4-7.3-12.3-10.5-20.6c-8-20.6-12.9-40.6-14.7-60.2c-0.2-1.9-1.1-4.2-1.2-7
	c-0.7-16.7-0.6-30.7,0.2-42c0.1-0.7,0.7-1.7,0.8-2.7c0.2-4.7,1.7-8.7,2.8-13.6c0.6-2.5,2.2-7.7,5.8-6.7c3.4,1,7.2,1.1,10,3.4
	c9.5,7.6,19.4,15.1,28.3,23.3c15.7,14.4,27.3,32.7,36.7,51.6c2.7,5.4,4.3,11.6,6.3,16.3c2.9,6.9,4.2,12.7,6.6,18.6
	c2.6,6.4,4.1,13.1,5.4,19.8c1.8,9.4,4.6,18.1,6.6,27.3c4.8,22.3,10.4,43.3,19.3,64.3C-13.8-132.4-11.7-128.9-9.3-125.7z
	 M-87.7-295.8c-4.5-2.8-10.2-6.3-15.6-5.9c-6,0.5-11.3,2.7-15.9,6.7c-7.2,6.2-11.3,18.7-4.7,26.9c6.3,7.9,14.2,14.4,23.7,19.5
	c5.9,3.2,12.8,5.3,19.5,7.3c0.3,0.1,0.5-0.1,0.6-0.3l0,0c1.8-6.5-0.5-17.5-2.4-23.9c-3-9.8-4.5-16.3-6.7-24.6
	c-0.6-2.3,1.3-2.5,2-4.2C-86.9-294.8-87.1-295.4-87.7-295.8z"/>
<path class="st5" d="M-87.7-295.8c0.6,0.4,0.8,0.9,0.5,1.6c-0.7,1.6-2.6,1.8-2,4.2c2.2,8.2,3.8,14.7,6.7,24.6
	c1.9,6.3,4.2,17.4,2.4,23.9c-0.1,0.3-0.3,0.4-0.6,0.3l0,0c-6.7-2-13.6-4.1-19.5-7.3c-9.5-5.1-17.4-11.6-23.7-19.5
	c-6.6-8.2-2.4-20.7,4.7-26.9c4.6-4,9.9-6.3,15.9-6.7C-97.9-302.1-92.2-298.6-87.7-295.8z"/>
<path class="st4" d="M-115.1,78.4c-1.5-1.5-2.2-3.4-2.1-5.8c0-0.3,0.1-0.5,0.4-0.7c5.7-3.9,13.3-4.6,19.5-7c6.4-2.5,9.8-3.9,10.3-4
	c26-8.7,52.2-18.3,79-24.7c4.3-1,8.1-3,12.3-4c3.8-0.9,7.4-2.2,10.8-3.9c1.1-0.6,2.4-0.9,3.9-1.1c3.2-0.4,5.9-2.1,8.7-2.8
	c13.7-3.5,27.1-7.9,40.8-11.4c7.1-1.8,14.5-5.1,22-7.1c5.1-1.3,9.3-3.5,14.2-4.9c10.1-2.9,20.3-6,30.7-9.4c0.3-0.1,0.6,0.1,0.7,0.3
	l0,0c1.7,6.4,3.5,12.9,4,19.6c0,0.3-0.1,0.6-0.4,0.7c-3,1.3-7,2.5-11.8,3.5c-4.9,1.1-14.8,3.9-29.7,8.6C86.7,27.9,75,33.1,63,36.5
	c-12.1,3.4-24.1,7.2-36,11.4c-2.5,0.9-6.4,2-11.9,3.5c-5.8,1.5-11.8,4.1-17,5.6c-12,3.5-23.8,7.4-35.5,11.7
	c-1.5,0.5-4.8,0.9-6.8,2.4c-1.1,0.8-2.1,1.3-2.9,1.5c-16.3,4.6-32.6,9.2-48.6,14.8c-4.1,1.5-7,2.1-8.7,2
	C-111.2,88.8-111.1,82.4-115.1,78.4z"/>
<path class="st6" d="M143.3,187.6c-1.8-1.7-2.8-3.9-3.1-6.7c-1.6-14.8-5.3-29.1-11-42.8c-0.7-1.6-2.6-5.4-5.8-11.4
	c-2.9-5.4-4.9-11.4-7.7-16.5c-5.1-9.2-9.8-18.6-14.2-28.1C100.3,79.3,97,76,95.9,72c-1-4-3.5-6-5.2-9.2c-2.5-4.6-5.6-8-8.3-12.1
	c-0.5-0.8-0.3-1.8,0.5-2.4c0.1-0.1,0.2-0.1,0.4-0.2c2.5-0.9,5.3-1.8,8.2-2.6c18.8-5.5,37.6-11.2,56.3-17c0.9-0.3,2.1-0.4,3.5-0.2
	c0.3,0,0.5,0.2,0.7,0.5c7.3,17.3,10.6,31,12.6,48.9c2.2,19.7,1.4,38.6-2.9,57.9c-0.8,3.7-2.4,10.2-4.7,19.4c-2,8.1-4.4,16-7.1,23.9
	c-1,2.9-2.4,5.7-4.2,8.4c-0.5,0.7-1.5,0.9-2.2,0.4C143.4,187.7,143.4,187.7,143.3,187.6z"/>
<path class="st6" d="M70,53.5l10.7-3.3c0.5-0.1,1,0.1,1.1,0.6v0.1c0.1,0.5-0.1,1-0.6,1.1l-10.7,3.3c-0.5,0.1-1-0.1-1.1-0.6v-0.1
	C69.2,54.1,69.5,53.6,70,53.5z"/>
<path class="st7" d="M75.5,304c-1.2,0-2-0.5-2.4-1.6c-0.1-0.3-0.1-0.6,0.1-0.9c7.9-11.8,5.4-27,6.6-40.6c1-10.5,2.8-22.1,2.9-31.4
	c0.2-18.6-2.7-36.5-12.4-52.7c-2.7-4.5-5.4-8.8-7.8-13.5c-7.2-13.9-15.2-27.3-22.2-41.2c-8.4-16.5-17.4-32.7-27-48.6
	c-0.2-0.3-0.4-0.5-0.8-0.6c-0.9-0.2-1.2-0.7-1-1.3c11.9-3.5,23.1-6.7,35.1-11.5c6.4-2.5,13-4.5,19.8-6c0.3-0.1,0.6,0.1,0.8,0.4
	c7,13.9,14.9,27.3,21.9,41.1c0.9,1.9,2.7,5.1,5.4,9.7c2.8,4.9,4.4,9.9,6.9,14.5c1.3,2.3,2,3.8,2.3,4.4c7.2,17.2,15.1,34.2,20.7,52.3
	c4.7,15.2,6.3,30.2,2.4,45.8c-2.7,10.8-6.2,21.8-11.7,31.5c-0.1,0.2-0.3,0.4-0.6,0.6l-3,1.8c-0.3,0.2-0.6,0.5-0.7,0.9
	c-2.4,7.5-5.7,14.2-10.8,20.2c-2.2,2.6-4,5.3-6.4,7.6C87.5,291,80.5,297,75.5,304z"/>
<path class="st6" d="M11.5,71.8c-0.2,0.6,0.2,1.1,1,1.3c0.3,0.1,0.6,0.3,0.8,0.6c9.6,15.9,18.6,32.1,27,48.6
	c7.1,13.9,15,27.3,22.2,41.2c2.4,4.7,5.1,9,7.8,13.5c9.7,16.2,12.7,34.1,12.4,52.7c-0.1,9.3-1.9,20.9-2.9,31.4
	c-1.2,13.5,1.3,28.8-6.6,40.6c-0.2,0.3-0.2,0.6-0.1,0.9c0.4,1,1.2,1.5,2.4,1.6c-5.4,7.5-12.6,12.8-18.8,19.7
	c-2.4,2.7-5.8,5.4-8.3,8.6c-2.5-5-6.5-3.5-10.2-6.4c-0.3-0.2-0.4-0.5-0.5-0.8c-1.7-7.3-3.6-14.1-4.4-21.6
	c-0.8-7.1-1.7-14.2-2.8-21.2c-2.8-18.1-0.9-31.9,1-52.6c1-10.1-2-19.5-5.3-30.7C18.9,174.6,9.2,151-3,128.4
	c-3.6-6.6-10.3-20.2-20.2-41c-0.5-1-1.6-2.2-3.4-3.6L11.5,71.8z"/>
<path class="st7" d="M-26.6,83.7c1.8,1.4,2.9,2.6,3.4,3.6c9.9,20.7,16.7,34.4,20.2,41c12.2,22.6,21.9,46.2,29.2,70.8
	c3.3,11.2,6.3,20.6,5.3,30.7c-2,20.7-3.8,34.5-1,52.6c1.1,7.1,2,14.1,2.8,21.2c0.8,7.5,2.8,14.3,4.4,21.6c0.1,0.3,0.2,0.6,0.5,0.8
	c3.7,2.9,7.7,1.3,10.2,6.4c-3.3,3.1-6.3,6.4-9.2,9.8c-4.2,5.1-8.4,8.2-13.4,11.9c-0.3,0.2-0.5,0.2-0.7-0.2c-1.8-3.2-3-6.9-5.6-9.5
	c-0.2-0.2-0.4-0.5-0.5-0.8c-1.3-4.4-3.1-10.3-5.7-14c-3.3-4.8-4.8-11.1-7.1-14.9c-6.3-10.8-11.5-22.1-17.6-33.1
	c-2.6-4.8-4.7-10.8-6.7-14.8c-4.7-9.7-9.9-19.2-15.5-28.4c-1.4-2.3-1.8-4.7-3-7.2c-2.6-5.3-5.3-10.6-8.1-15.8
	c-1.2-2.3-1.4-4.8-2.7-6.8c-2.4-3.7-3.9-8.2-5.6-11.5c-2.5-4.9-4.4-9-7.6-14.5c-1.9-3.3-3.3-7.1-5-10.2c-2.2-4.1-4.3-8.3-6.2-12.6
	c-1.3-2.8-3.7-6.2-4.7-9.9c-0.3-1.3-1.5-3.4-3.4-6.3c-1.3-2-1.2-4.5-2.8-6.1c-7.9-7.5-11.5-19.2-15.7-29c-0.3-0.7,0-1.6,0.8-1.9
	c0,0,0,0,0.1,0c9.3-3.5,21.3-6,28.6-8.2C-54.7,93.9-40.6,89-26.6,83.7z"/>
</svg>
