<?xml version="1.0" encoding="UTF-8" standalone="no"?>
<!DOCTYPE svg PUBLIC "-//W3C//DTD SVG 1.1//EN" "http://www.w3.org/Graphics/SVG/1.1/DTD/svg11.dtd">
<svg xmlns="http://www.w3.org/2000/svg" version="1.1" viewBox="0.00 0.00 328.00 320.00">
<path fill="#1d3050" d="
  M 111.32 293.08
  C 69.78 277.62 35.47 239.84 24.33 197.21
  Q 22.63 190.72 21.12 181.18
  C 19.72 172.30 19.89 163.49 20.02 154.47
  C 20.10 149.01 21.43 143.20 21.88 137.46
  C 21.99 136.07 22.88 134.97 23.01 133.75
  Q 23.40 129.82 25.25 123.50
  C 37.84 80.56 70.53 46.01 111.79 30.71
  Q 116.24 29.05 120.68 27.36
  Q 123.16 26.42 126.92 25.78
  C 129.82 25.28 132.62 24.29 135.39 23.95
  Q 141.53 23.21 147.68 22.50
  C 178.79 18.90 212.70 28.54 238.32 45.99
  C 244.67 50.32 250.84 56.11 256.71 61.51
  A 2.03 2.02 -46.7 0 0 259.55 61.42
  Q 271.20 49.21 283.27 37.27
  C 290.45 30.16 300.91 30.04 307.18 38.15
  C 310.55 42.49 310.38 50.21 310.23 55.50
  C 309.59 77.63 309.99 99.89 310.00 122.04
  C 310.00 135.96 305.53 142.01 291.23 142.01
  Q 253.83 142.00 216.44 141.99
  C 202.87 141.98 193.70 126.74 204.29 116.29
  Q 216.68 104.06 229.07 91.70
  Q 229.97 90.80 229.04 89.94
  Q 210.43 72.88 186.24 65.52
  Q 182.77 64.47 169.73 62.49
  C 158.90 60.84 145.85 62.40 135.24 64.99
  C 116.27 69.61 97.43 81.50 84.70 96.25
  Q 59.37 125.60 59.90 165.46
  Q 59.95 169.09 60.79 174.49
  C 61.42 178.49 61.75 182.71 62.79 186.43
  C 73.19 223.58 102.76 251.90 140.46 260.22
  Q 157.72 264.02 175.12 260.81
  C 182.20 259.50 188.97 258.29 197.57 254.58
  Q 215.00 247.07 228.70 233.95
  C 236.54 226.46 248.50 224.32 257.22 231.04
  C 265.09 237.12 268.57 249.61 261.14 258.13
  Q 259.78 259.70 257.58 261.59
  C 252.38 266.06 246.93 271.05 241.80 274.81
  C 207.38 300.06 164.06 308.00 122.51 296.95
  Q 119.65 296.19 111.32 293.08
  Z"
/>
</svg>
