<?xml version="1.0" encoding="UTF-8" standalone="no"?>
<!DOCTYPE svg PUBLIC "-//W3C//DTD SVG 1.1//EN" "http://www.w3.org/Graphics/SVG/1.1/DTD/svg11.dtd">
<svg xmlns="http://www.w3.org/2000/svg" version="1.1" viewBox="0.00 0.00 438.00 354.00">
<g stroke-width="2.00" fill="none" stroke-linecap="butt">
<path stroke="#8e98a8" vector-effect="non-scaling-stroke" d="
  M 139.59 16.10
  Q 150.17 18.05 154.01 19.94
  Q 173.29 29.48 177.10 49.84
  C 178.10 55.15 177.87 62.35 178.52 68.61"
/>
<path stroke="#8e98a8" vector-effect="non-scaling-stroke" d="
  M 279.26 75.55
  Q 279.07 75.77 278.63 75.77
  Q 278.32 75.77 278.45 76.06
  Q 278.54 76.29 278.76 76.30
  C 294.36 77.32 307.19 85.30 313.71 99.36
  Q 316.87 106.16 318.13 114.06"
/>
<path stroke="#8e98a8" vector-effect="non-scaling-stroke" d="
  M 385.29 176.53
  Q 412.04 184.76 416.94 209.33
  Q 418.02 214.74 418.02 229.27
  Q 418.03 251.96 417.91 274.65
  C 417.85 285.40 419.05 296.88 415.73 307.28
  Q 414.78 310.26 413.99 313.46"
/>
<path stroke="#8e98a8" vector-effect="non-scaling-stroke" d="
  M 264.91 318.49
  L 258.73 304.31"
/>
<path stroke="#8e98a8" vector-effect="non-scaling-stroke" d="
  M 122.91 255.05
  Q 121.76 251.73 120.54 248.46
  C 118.55 243.15 117.85 236.74 117.84 231.15
  Q 117.79 210.10 117.63 188.95"
/>
<path stroke="#8e98a8" vector-effect="non-scaling-stroke" d="
  M 27.15 161.45
  Q 21.56 152.71 18.64 143.39"
/>
<path stroke="#8e98a8" vector-effect="non-scaling-stroke" d="
  M 138.00 56.32
  A 0.32 0.32 0.0 0 0 137.68 56.00
  L 58.32 56.00
  A 0.32 0.32 0.0 0 0 58.00 56.32
  L 58.00 135.68
  A 0.32 0.32 0.0 0 0 58.32 136.00
  L 137.68 136.00
  A 0.32 0.32 0.0 0 0 138.00 135.68
  L 138.00 56.32"
/>
<path stroke="#8e98a8" vector-effect="non-scaling-stroke" d="
  M 378.00 216.32
  A 0.32 0.32 0.0 0 0 377.68 216.00
  L 298.32 216.00
  A 0.32 0.32 0.0 0 0 298.00 216.32
  L 298.00 295.68
  A 0.32 0.32 0.0 0 0 298.32 296.00
  L 377.68 296.00
  A 0.32 0.32 0.0 0 0 378.00 295.68
  L 378.00 216.32"
/>
</g>
<path fill="#1d3050" d="
  M 139.59 16.10
  Q 150.17 18.05 154.01 19.94
  Q 173.29 29.48 177.10 49.84
  C 178.10 55.15 177.87 62.35 178.52 68.61
  L 177.87 73.63
  A 1.69 1.69 0.0 0 0 179.55 75.53
  L 279.26 75.55
  Q 279.07 75.77 278.63 75.77
  Q 278.32 75.77 278.45 76.06
  Q 278.54 76.29 278.76 76.30
  C 294.36 77.32 307.19 85.30 313.71 99.36
  Q 316.87 106.16 318.13 114.06
  L 318.22 174.74
  A 1.26 1.26 0.0 0 0 319.48 176.00
  Q 349.86 176.00 380.23 176.00
  C 381.88 176.00 383.54 176.63 385.29 176.53
  Q 412.04 184.76 416.94 209.33
  Q 418.02 214.74 418.02 229.27
  Q 418.03 251.96 417.91 274.65
  C 417.85 285.40 419.05 296.88 415.73 307.28
  Q 414.78 310.26 413.99 313.46
  Q 405.07 330.05 387.15 334.76
  Q 381.89 336.14 372.30 336.18
  Q 340.00 336.32 307.70 336.25
  Q 293.82 336.22 287.98 334.65
  Q 273.77 330.85 264.91 318.49
  L 258.73 304.31
  Q 256.77 291.03 257.67 277.05
  A 0.55 0.54 -88.0 0 0 257.13 276.46
  Q 207.22 276.52 160.01 276.48
  C 146.85 276.47 128.59 268.49 122.91 255.05
  Q 121.76 251.73 120.54 248.46
  C 118.55 243.15 117.85 236.74 117.84 231.15
  Q 117.79 210.10 117.63 188.95
  L 118.00 178.54
  Q 118.08 176.28 115.81 176.27
  Q 87.72 176.13 60.70 176.05
  C 47.14 176.02 36.03 171.88 27.15 161.45
  Q 21.56 152.71 18.64 143.39
  Q 18.78 140.94 17.89 139.18
  Q 17.66 138.74 17.66 138.25
  Q 17.30 96.92 17.72 55.60
  Q 17.73 54.70 18.35 52.53
  C 18.74 51.15 18.37 49.54 18.67 48.18
  C 22.16 32.35 33.52 21.31 48.80 16.97
  C 50.49 16.49 54.12 16.02 56.06 16.02
  Q 98.02 15.92 139.59 16.10
  Z
  M 138.00 56.32
  A 0.32 0.32 0.0 0 0 137.68 56.00
  L 58.32 56.00
  A 0.32 0.32 0.0 0 0 58.00 56.32
  L 58.00 135.68
  A 0.32 0.32 0.0 0 0 58.32 136.00
  L 137.68 136.00
  A 0.32 0.32 0.0 0 0 138.00 135.68
  L 138.00 56.32
  Z
  M 378.00 216.32
  A 0.32 0.32 0.0 0 0 377.68 216.00
  L 298.32 216.00
  A 0.32 0.32 0.0 0 0 298.00 216.32
  L 298.00 295.68
  A 0.32 0.32 0.0 0 0 298.32 296.00
  L 377.68 296.00
  A 0.32 0.32 0.0 0 0 378.00 295.68
  L 378.00 216.32
  Z"
/>
<path fill="#ffffff" d="
  M 139.59 16.10
  C 155.42 16.33 169.44 27.11 175.43 41.26
  C 178.89 49.44 179.14 59.55 178.52 68.61
  C 177.87 62.35 178.10 55.15 177.10 49.84
  Q 173.29 29.48 154.01 19.94
  Q 150.17 18.05 139.59 16.10
  Z"
/>
<rect fill="#ffffff" x="58.00" y="56.00" width="80.00" height="80.00" rx="0.32"/>
<path fill="#ffffff" d="
  M 279.26 75.55
  C 301.01 77.23 316.45 92.70 318.13 114.06
  Q 316.87 106.16 313.71 99.36
  C 307.19 85.30 294.36 77.32 278.76 76.30
  Q 278.54 76.29 278.45 76.06
  Q 278.32 75.77 278.63 75.77
  Q 279.07 75.77 279.26 75.55
  Z"
/>
<path fill="#ffffff" d="
  M 18.64 143.39
  Q 21.56 152.71 27.15 161.45
  Q 20.13 153.40 18.64 143.39
  Z"
/>
<path fill="#ffffff" d="
  M 385.29 176.53
  Q 411.29 183.14 417.37 207.73
  Q 418.72 213.19 418.74 223.01
  Q 418.82 277.21 418.72 295.24
  Q 418.67 304.59 413.99 313.46
  Q 414.78 310.26 415.73 307.28
  C 419.05 296.88 417.85 285.40 417.91 274.65
  Q 418.03 251.96 418.02 229.27
  Q 418.02 214.74 416.94 209.33
  Q 412.04 184.76 385.29 176.53
  Z"
/>
<path fill="#ffffff" d="
  M 117.63 188.95
  Q 117.79 210.10 117.84 231.15
  C 117.85 236.74 118.55 243.15 120.54 248.46
  Q 121.76 251.73 122.91 255.05
  Q 117.25 245.08 117.19 232.56
  Q 117.06 206.08 117.63 188.95
  Z"
/>
<rect fill="#ffffff" x="298.00" y="216.00" width="80.00" height="80.00" rx="0.32"/>
<path fill="#ffffff" d="
  M 264.91 318.49
  Q 259.96 311.81 258.73 304.31
  L 264.91 318.49
  Z"
/>
</svg>
