<?xml version="1.0" encoding="UTF-8" standalone="no"?>
<!DOCTYPE svg PUBLIC "-//W3C//DTD SVG 1.1//EN" "http://www.w3.org/Graphics/SVG/1.1/DTD/svg11.dtd">
<svg xmlns="http://www.w3.org/2000/svg" version="1.1" viewBox="0.00 0.00 438.00 354.00">
<g stroke-width="2.00" fill="none" stroke-linecap="butt">
<path stroke="#516576" stroke-opacity="0.992" vector-effect="non-scaling-stroke" d="
  M 57.75 18.01
  Q 57.86 18.70 57.52 18.82
  Q 55.82 19.41 54.92 18.57"
/>
<path stroke="#516576" stroke-opacity="0.992" vector-effect="non-scaling-stroke" d="
  M 141.81 18.02
  Q 142.67 19.46 146.17 18.80"
/>
<path stroke="#516576" stroke-opacity="0.992" vector-effect="non-scaling-stroke" d="
  M 148.23 19.01
  L 155.29 21.19"
/>
<path stroke="#516576" stroke-opacity="0.992" vector-effect="non-scaling-stroke" d="
  M 156.33 21.72
  Q 158.17 23.77 160.62 23.86"
/>
<path stroke="#516576" stroke-opacity="0.992" vector-effect="non-scaling-stroke" d="
  M 166.04 28.14
  Q 178.64 40.41 180.19 58.37"
/>
<path stroke="#516576" stroke-opacity="0.992" vector-effect="non-scaling-stroke" d="
  M 281.99 77.90
  Q 304.51 80.91 315.18 99.57
  Q 318.07 104.61 319.94 114.86"
/>
<path stroke="#516576" stroke-opacity="0.992" vector-effect="non-scaling-stroke" d="
  M 381.59 178.18
  Q 392.31 179.62 401.48 184.72"
/>
<path stroke="#516576" stroke-opacity="0.992" vector-effect="non-scaling-stroke" d="
  M 405.81 188.03
  Q 414.73 196.87 418.87 208.50"
/>
<path stroke="#516576" stroke-opacity="0.992" vector-effect="non-scaling-stroke" d="
  M 418.79 307.60
  L 415.95 315.33"
/>
<path stroke="#516576" stroke-opacity="0.992" vector-effect="non-scaling-stroke" d="
  M 299.40 338.15
  Q 295.86 336.34 292.21 337.20"
/>
<path stroke="#516576" stroke-opacity="0.992" vector-effect="non-scaling-stroke" d="
  M 264.67 316.81
  Q 264.48 315.06 263.74 313.37
  C 261.01 307.11 260.09 299.80 259.70 292.85"
/>
<path stroke="#516576" stroke-opacity="0.992" vector-effect="non-scaling-stroke" d="
  M 128.15 262.08
  C 127.14 260.50 121.96 250.10 121.68 250.00"
/>
<path stroke="#516576" stroke-opacity="0.992" vector-effect="non-scaling-stroke" d="
  M 121.62 249.29
  Q 121.90 247.09 120.76 247.23"
/>
<path stroke="#516576" stroke-opacity="0.992" vector-effect="non-scaling-stroke" d="
  M 57.41 178.05
  Q 56.56 176.25 52.73 177.25"
/>
<path stroke="#516576" stroke-opacity="0.992" vector-effect="non-scaling-stroke" d="
  M 25.09 157.36
  Q 24.70 155.56 23.89 153.84
  C 21.59 149.02 20.19 142.03 20.08 137.93
  Q 19.55 116.62 20.06 62.50
  Q 20.17 49.99 25.09 39.20"
/>
<path stroke="#516576" stroke-opacity="0.992" vector-effect="non-scaling-stroke" d="
  M 29.94 31.90
  Q 32.86 30.21 34.78 27.20"
/>
<path stroke="#516576" stroke-opacity="0.992" vector-effect="non-scaling-stroke" d="
  M 45.70 20.79
  Q 47.26 21.43 48.80 19.71"
/>
<path stroke="#516576" stroke-opacity="0.992" vector-effect="non-scaling-stroke" d="
  M 142.99 82.26
  Q 149.72 78.94 157.21 78.66
  A 0.07 0.07 0.0 0 0 157.27 78.57
  Q 157.23 78.44 157.18 78.31
  Q 157.14 78.16 156.99 78.17
  C 153.48 78.32 145.28 79.41 142.84 82.07
  A 0.12 0.12 0.0 0 0 142.99 82.26"
/>
<path stroke="#516576" stroke-opacity="0.992" vector-effect="non-scaling-stroke" d="
  M 283.49 277.70
  C 288.14 278.21 293.87 275.89 298.02 273.61
  Q 298.31 273.45 298.03 273.27
  Q 297.86 273.16 297.58 273.32
  Q 290.99 277.06 283.39 277.33
  Q 283.29 277.33 283.26 277.43
  Q 283.25 277.47 283.25 277.52
  Q 283.27 277.68 283.49 277.70"
/>
</g>
<path fill="#859b9c" fill-opacity="0.984" d="
  M 57.75 18.01
  Q 57.86 18.70 57.52 18.82
  Q 55.82 19.41 54.92 18.57
  Q 56.14 17.80 57.75 18.01
  Z"
/>
<path fill="#1d3050" d="
  M 57.75 18.01
  L 141.81 18.02
  Q 142.67 19.46 146.17 18.80
  Q 147.85 18.53 148.23 19.01
  L 155.29 21.19
  Q 156.13 21.15 156.33 21.72
  Q 158.17 23.77 160.62 23.86
  L 166.04 28.14
  Q 178.64 40.41 180.19 58.37
  L 180.35 76.44
  A 1.35 1.35 0.0 0 0 181.70 77.78
  L 281.99 77.90
  Q 304.51 80.91 315.18 99.57
  Q 318.07 104.61 319.94 114.86
  L 319.98 176.75
  A 1.27 1.26 -0.0 0 0 321.25 178.01
  C 337.93 177.98 355.20 178.78 371.94 177.47
  Q 377.00 177.08 381.59 178.18
  Q 392.31 179.62 401.48 184.72
  Q 404.12 185.76 405.81 188.03
  Q 414.73 196.87 418.87 208.50
  C 419.63 212.86 420.45 217.28 420.46 221.79
  Q 420.56 258.23 420.46 294.67
  C 420.45 299.12 419.68 303.41 418.79 307.60
  L 415.95 315.33
  C 407.85 330.90 392.76 338.45 375.35 338.47
  Q 338.17 338.52 301.00 338.27
  Q 300.05 338.26 299.40 338.15
  Q 295.86 336.34 292.21 337.20
  Q 273.98 332.79 264.67 316.81
  Q 264.48 315.06 263.74 313.37
  C 261.01 307.11 260.09 299.80 259.70 292.85
  L 260.15 280.29
  A 2.21 2.21 0.0 0 0 257.94 278.00
  Q 210.29 278.00 161.85 278.00
  Q 154.31 278.00 149.79 276.72
  Q 136.69 273.00 128.15 262.08
  C 127.14 260.50 121.96 250.10 121.68 250.00
  Q 121.31 249.81 121.62 249.29
  Q 121.90 247.09 120.76 247.23
  Q 120.98 245.58 120.20 244.28
  Q 119.93 243.84 119.93 243.32
  L 119.68 178.95
  A 0.88 0.87 89.0 0 0 118.79 178.08
  C 98.71 178.57 77.47 179.58 57.41 178.05
  Q 56.56 176.25 52.73 177.25
  Q 34.27 173.24 25.09 157.36
  Q 24.70 155.56 23.89 153.84
  C 21.59 149.02 20.19 142.03 20.08 137.93
  Q 19.55 116.62 20.06 62.50
  Q 20.17 49.99 25.09 39.20
  Q 26.77 35.13 29.94 31.90
  Q 32.86 30.21 34.78 27.20
  Q 39.56 22.98 45.70 20.79
  Q 47.26 21.43 48.80 19.71
  L 54.92 18.57
  Q 55.82 19.41 57.52 18.82
  Q 57.86 18.70 57.75 18.01
  Z
  M 138.70 57.97
  L 61.48 58.02
  A 1.42 1.42 0.0 0 0 60.06 59.46
  Q 60.40 95.05 60.22 131.20
  C 60.21 135.09 58.18 138.05 64.09 137.89
  Q 91.16 137.15 118.04 137.65
  A 1.68 1.68 0.0 0 0 119.75 135.97
  C 119.74 128.16 119.21 119.91 120.46 111.96
  Q 122.90 96.42 134.56 87.31
  Q 137.99 84.64 139.62 83.11
  A 1.19 1.18 68.8 0 0 140.00 82.24
  L 140.00 59.26
  A 1.30 1.29 0.0 0 0 138.70 57.97
  Z
  M 142.99 82.26
  Q 149.72 78.94 157.21 78.66
  A 0.07 0.07 0.0 0 0 157.27 78.57
  Q 157.23 78.44 157.18 78.31
  Q 157.14 78.16 156.99 78.17
  C 153.48 78.32 145.28 79.41 142.84 82.07
  A 0.12 0.12 0.0 0 0 142.99 82.26
  Z
  M 301.27 297.79
  L 379.37 297.58
  A 0.64 0.63 90.0 0 0 380.00 296.94
  L 379.99 219.61
  A 1.38 1.38 0.0 0 0 378.61 218.23
  L 320.65 218.22
  Q 320.10 218.22 320.09 218.76
  C 319.89 227.86 321.09 239.02 318.91 247.29
  C 316.03 258.17 309.73 265.60 300.73 272.08
  A 1.77 1.77 0.0 0 0 300.00 273.51
  L 300.00 296.52
  Q 300.00 297.79 301.27 297.79
  Z
  M 283.49 277.70
  C 288.14 278.21 293.87 275.89 298.02 273.61
  Q 298.31 273.45 298.03 273.27
  Q 297.86 273.16 297.58 273.32
  Q 290.99 277.06 283.39 277.33
  Q 283.29 277.33 283.26 277.43
  Q 283.25 277.47 283.25 277.52
  Q 283.27 277.68 283.49 277.70
  Z"
/>
<path fill="#859b9c" fill-opacity="0.984" d="
  M 141.81 18.02
  Q 144.29 17.71 146.17 18.80
  Q 142.67 19.46 141.81 18.02
  Z"
/>
<path fill="#859b9c" fill-opacity="0.984" d="
  M 148.23 19.01
  Q 152.18 19.39 155.29 21.19
  L 148.23 19.01
  Z"
/>
<path fill="#859b9c" fill-opacity="0.984" d="
  M 48.80 19.71
  Q 47.26 21.43 45.70 20.79
  Q 46.85 19.88 48.80 19.71
  Z"
/>
<path fill="#859b9c" fill-opacity="0.984" d="
  M 156.33 21.72
  L 160.62 23.86
  Q 158.17 23.77 156.33 21.72
  Z"
/>
<path fill="#859b9c" fill-opacity="0.984" d="
  M 34.78 27.20
  Q 32.86 30.21 29.94 31.90
  L 34.78 27.20
  Z"
/>
<path fill="#859b9c" fill-opacity="0.984" d="
  M 166.04 28.14
  C 175.59 35.84 180.02 46.18 180.19 58.37
  Q 178.64 40.41 166.04 28.14
  Z"
/>
<path fill="#859b9c" fill-opacity="0.984" d="
  M 25.09 39.20
  Q 20.17 49.99 20.06 62.50
  Q 19.55 116.62 20.08 137.93
  C 20.19 142.03 21.59 149.02 23.89 153.84
  Q 24.70 155.56 25.09 157.36
  C 20.55 150.13 19.36 141.26 19.31 132.34
  Q 19.07 95.64 19.47 58.93
  C 19.49 56.93 20.13 54.66 20.33 52.28
  Q 20.91 45.31 25.09 39.20
  Z"
/>
<path fill="#859b9c" fill-opacity="0.984" d="
  M 281.99 77.90
  Q 285.82 77.80 289.06 78.68
  C 305.93 83.25 319.21 97.03 319.94 114.86
  Q 318.07 104.61 315.18 99.57
  Q 304.51 80.91 281.99 77.90
  Z"
/>
<path fill="#859b9c" fill-opacity="0.984" d="
  M 142.99 82.26
  A 0.12 0.12 0.0 0 1 142.84 82.07
  C 145.28 79.41 153.48 78.32 156.99 78.17
  Q 157.14 78.16 157.18 78.31
  Q 157.23 78.44 157.27 78.57
  A 0.07 0.07 0.0 0 1 157.21 78.66
  Q 149.72 78.94 142.99 82.26
  Z"
/>
<path fill="#859b9c" fill-opacity="0.984" d="
  M 57.41 178.05
  Q 54.46 178.22 52.73 177.25
  Q 56.56 176.25 57.41 178.05
  Z"
/>
<path fill="#859b9c" fill-opacity="0.984" d="
  M 381.59 178.18
  Q 392.82 178.16 401.48 184.72
  Q 392.31 179.62 381.59 178.18
  Z"
/>
<path fill="#859b9c" fill-opacity="0.984" d="
  M 405.81 188.03
  Q 416.29 196.30 418.87 208.50
  Q 414.73 196.87 405.81 188.03
  Z"
/>
<path fill="#859b9c" fill-opacity="0.984" d="
  M 120.76 247.23
  Q 121.90 247.09 121.62 249.29
  Q 120.58 248.32 120.76 247.23
  Z"
/>
<path fill="#859b9c" fill-opacity="0.984" d="
  M 121.68 250.00
  C 121.96 250.10 127.14 260.50 128.15 262.08
  Q 123.47 256.92 121.68 250.00
  Z"
/>
<path fill="#859b9c" fill-opacity="0.984" d="
  M 298.02 273.61
  C 293.87 275.89 288.14 278.21 283.49 277.70
  Q 283.27 277.68 283.25 277.52
  Q 283.25 277.47 283.26 277.43
  Q 283.29 277.33 283.39 277.33
  Q 290.99 277.06 297.58 273.32
  Q 297.86 273.16 298.03 273.27
  Q 298.31 273.45 298.02 273.61
  Z"
/>
<path fill="#859b9c" fill-opacity="0.984" d="
  M 259.70 292.85
  C 260.09 299.80 261.01 307.11 263.74 313.37
  Q 264.48 315.06 264.67 316.81
  Q 258.57 306.03 259.70 292.85
  Z"
/>
<path fill="#859b9c" fill-opacity="0.984" d="
  M 418.79 307.60
  Q 418.46 311.62 415.95 315.33
  L 418.79 307.60
  Z"
/>
<path fill="#859b9c" fill-opacity="0.984" d="
  M 299.40 338.15
  Q 295.53 338.43 292.21 337.20
  Q 295.86 336.34 299.40 338.15
  Z"
/>
</svg>
