<?xml version="1.0" encoding="UTF-8" standalone="no"?>
<!DOCTYPE svg PUBLIC "-//W3C//DTD SVG 1.1//EN" "http://www.w3.org/Graphics/SVG/1.1/DTD/svg11.dtd">
<svg xmlns="http://www.w3.org/2000/svg" version="1.1" viewBox="0.00 0.00 346.00 334.00">
<g stroke-width="2.00" fill="none" stroke-linecap="butt">
<path stroke="#9098a7" vector-effect="non-scaling-stroke" d="
  M 110.86 25.68
  Q 108.25 26.32 104.99 26.29
  Q 83.64 26.06 51.92 26.39
  Q 35.84 26.55 32.19 40.37
  C 28.23 55.38 38.23 66.22 53.55 66.28
  Q 157.60 66.68 261.65 66.45
  C 265.14 66.44 269.15 66.19 273.50 66.47
  C 279.45 66.85 292.11 67.28 298.79 64.29
  C 303.78 62.06 309.14 57.46 309.95 51.81
  C 310.36 48.96 311.28 46.94 310.52 44.00
  C 308.83 37.52 308.12 33.46 302.28 29.69
  C 297.61 26.68 290.74 26.24 285.00 26.25
  Q 258.33 26.32 231.62 26.12
  Q 231.11 26.12 230.86 25.67
  C 228.17 20.80 225.90 14.73 221.69 11.00
  C 217.01 6.86 209.44 5.75 203.25 5.75
  Q 170.48 5.74 137.72 5.77
  C 122.17 5.78 117.36 12.37 111.59 25.08
  Q 111.38 25.56 110.86 25.68"
/>
<path stroke="#9098a7" vector-effect="non-scaling-stroke" d="
  M 64.37 296.89
  C 65.93 313.23 76.47 325.72 93.75 325.73
  Q 168.02 325.76 242.28 325.74
  Q 253.38 325.73 257.93 324.23
  C 266.97 321.24 273.69 313.43 276.48 304.34
  C 278.54 297.63 278.26 288.28 278.93 280.49
  C 280.74 259.59 281.10 238.57 282.80 217.58
  C 283.65 207.16 283.91 196.65 284.77 186.19
  C 286.43 166.21 287.06 145.82 288.48 126.09
  C 289.51 111.85 290.02 100.40 290.75 87.60
  A 1.28 1.27 1.7 0 0 289.47 86.25
  L 52.98 86.25
  Q 51.07 86.25 51.19 88.15
  Q 54.96 149.16 58.58 209.26
  Q 59.97 232.52 61.54 255.77
  C 62.20 265.52 63.06 283.21 64.37 296.89"
/>
</g>
<path fill="#ffffff" d="
  M 0.00 0.00
  L 346.00 0.00
  L 346.00 334.00
  L 0.00 334.00
  L 0.00 0.00
  Z
  M 110.86 25.68
  Q 108.25 26.32 104.99 26.29
  Q 83.64 26.06 51.92 26.39
  Q 35.84 26.55 32.19 40.37
  C 28.23 55.38 38.23 66.22 53.55 66.28
  Q 157.60 66.68 261.65 66.45
  C 265.14 66.44 269.15 66.19 273.50 66.47
  C 279.45 66.85 292.11 67.28 298.79 64.29
  C 303.78 62.06 309.14 57.46 309.95 51.81
  C 310.36 48.96 311.28 46.94 310.52 44.00
  C 308.83 37.52 308.12 33.46 302.28 29.69
  C 297.61 26.68 290.74 26.24 285.00 26.25
  Q 258.33 26.32 231.62 26.12
  Q 231.11 26.12 230.86 25.67
  C 228.17 20.80 225.90 14.73 221.69 11.00
  C 217.01 6.86 209.44 5.75 203.25 5.75
  Q 170.48 5.74 137.72 5.77
  C 122.17 5.78 117.36 12.37 111.59 25.08
  Q 111.38 25.56 110.86 25.68
  Z
  M 64.37 296.89
  C 65.93 313.23 76.47 325.72 93.75 325.73
  Q 168.02 325.76 242.28 325.74
  Q 253.38 325.73 257.93 324.23
  C 266.97 321.24 273.69 313.43 276.48 304.34
  C 278.54 297.63 278.26 288.28 278.93 280.49
  C 280.74 259.59 281.10 238.57 282.80 217.58
  C 283.65 207.16 283.91 196.65 284.77 186.19
  C 286.43 166.21 287.06 145.82 288.48 126.09
  C 289.51 111.85 290.02 100.40 290.75 87.60
  A 1.28 1.27 1.7 0 0 289.47 86.25
  L 52.98 86.25
  Q 51.07 86.25 51.19 88.15
  Q 54.96 149.16 58.58 209.26
  Q 59.97 232.52 61.54 255.77
  C 62.20 265.52 63.06 283.21 64.37 296.89
  Z"
/>
<path fill="#21314e" d="
  M 111.59 25.08
  C 117.36 12.37 122.17 5.78 137.72 5.77
  Q 170.48 5.74 203.25 5.75
  C 209.44 5.75 217.01 6.86 221.69 11.00
  C 225.90 14.73 228.17 20.80 230.86 25.67
  Q 231.11 26.12 231.62 26.12
  Q 258.33 26.32 285.00 26.25
  C 290.74 26.24 297.61 26.68 302.28 29.69
  C 308.12 33.46 308.83 37.52 310.52 44.00
  C 311.28 46.94 310.36 48.96 309.95 51.81
  C 309.14 57.46 303.78 62.06 298.79 64.29
  C 292.11 67.28 279.45 66.85 273.50 66.47
  C 269.15 66.19 265.14 66.44 261.65 66.45
  Q 157.60 66.68 53.55 66.28
  C 38.23 66.22 28.23 55.38 32.19 40.37
  Q 35.84 26.55 51.92 26.39
  Q 83.64 26.06 104.99 26.29
  Q 108.25 26.32 110.86 25.68
  Q 111.38 25.56 111.59 25.08
  Z"
/>
<path fill="#21314e" d="
  M 93.75 325.73
  C 76.47 325.72 65.93 313.23 64.37 296.89
  C 63.06 283.21 62.20 265.52 61.54 255.77
  Q 59.97 232.52 58.58 209.26
  Q 54.96 149.16 51.19 88.15
  Q 51.07 86.25 52.98 86.25
  L 289.47 86.25
  A 1.28 1.27 1.7 0 1 290.75 87.60
  C 290.02 100.40 289.51 111.85 288.48 126.09
  C 287.06 145.82 286.43 166.21 284.77 186.19
  C 283.91 196.65 283.65 207.16 282.80 217.58
  C 281.10 238.57 280.74 259.59 278.93 280.49
  C 278.26 288.28 278.54 297.63 276.48 304.34
  C 273.69 313.43 266.97 321.24 257.93 324.23
  Q 253.38 325.73 242.28 325.74
  Q 168.02 325.76 93.75 325.73
  Z"
/>
</svg>
