<?xml version="1.0" encoding="UTF-8" standalone="no"?>
<!DOCTYPE svg PUBLIC "-//W3C//DTD SVG 1.1//EN" "http://www.w3.org/Graphics/SVG/1.1/DTD/svg11.dtd">
<svg xmlns="http://www.w3.org/2000/svg" version="1.1" viewBox="0.00 0.00 328.00 320.00">
<path fill="#1d3050" d="
  M 101.01 91.87
  Q 112.95 103.56 124.77 115.24
  C 127.79 118.22 130.25 121.67 130.09 126.13
  C 129.74 136.29 122.67 141.98 112.88 141.99
  Q 75.20 142.02 37.49 141.99
  C 25.28 141.98 19.72 135.62 19.59 123.47
  Q 19.20 87.26 19.52 51.05
  C 19.54 48.72 19.76 45.04 20.48 42.75
  C 24.38 30.44 38.83 28.83 47.39 37.63
  Q 59.21 49.78 70.57 61.49
  A 2.10 2.09 -44.1 0 0 73.54 61.53
  C 79.65 55.57 86.21 49.64 93.23 45.03
  C 106.39 36.40 122.92 28.39 138.54 25.64
  C 141.03 25.20 143.49 24.30 145.87 24.02
  C 155.51 22.87 165.27 21.48 174.75 22.01
  C 190.95 22.93 206.80 25.63 221.85 31.88
  C 249.82 43.49 272.75 63.05 289.01 88.39
  C 298.11 102.55 305.32 119.78 307.71 136.86
  Q 308.24 140.66 308.75 143.08
  C 310.63 152.08 309.79 162.53 309.78 171.75
  C 309.78 177.29 308.28 180.63 307.98 184.65
  C 307.44 192.09 305.14 199.86 302.58 207.12
  C 287.87 248.84 251.59 283.66 209.04 296.14
  C 159.29 310.73 107.18 296.78 71.01 260.28
  Q 66.63 255.86 65.51 252.51
  C 62.10 242.42 68.92 231.58 78.25 227.96
  C 86.18 224.88 95.25 228.55 101.15 234.10
  Q 121.09 252.86 147.56 259.63
  Q 148.29 259.82 150.94 259.97
  C 152.62 260.06 154.01 260.91 155.47 261.13
  C 165.72 262.71 176.00 262.64 186.18 260.59
  C 189.05 260.01 191.99 259.72 194.66 259.02
  C 235.22 248.30 265.39 212.80 269.65 171.46
  C 273.83 130.96 252.07 93.50 217.13 74.08
  C 179.46 53.14 131.88 60.30 101.02 89.83
  Q 99.96 90.84 101.01 91.87
  Z"
/>
</svg>
